<?xml version="1.0" encoding="UTF-8"?> <svg xmlns="http://www.w3.org/2000/svg" id="Layer_1" data-name="Layer 1" viewBox="0 0 1417.9 1000"> <defs> <clipPath id="clip-path"> <path fill="none" d="M74 67h1309v913H74z"></path> </clipPath> <style>.cls-5{fill:#f85f4c}.cls-6{fill:#fff}.cls-7{stroke:#000;stroke-miterlimit:10}.cls-8{isolation:isolate}</style> </defs> <g id="Layer_8" data-name="Layer 8"> <path fill="#dadae8" d="M984 262v-52c0-8-9-15-20-15H72c-11 0-20 7-20 15v52Z"></path> <path fill="#1e1e28" d="M1032 311s-1 23 5 31 8 13 17 15a103 103 0 0 1 12 4s9 5 15 7 28 7 38 6l20-4a26 26 0 0 1 1 13c-1 7-4 19-3 25s9 21 9 21 11-13 18-15 9-4 14-1 10 9 10 14 1 12-3 19 3 5 3 5l2 28c1 7 5 1 5 1l2-11 5 9 13-39c4-12 12-27 14-35l3-21-1-17-7-10 10-5s-1-4-6-5 3-10 3-10l-13-2-5 1 6-11-10 6s-6-16-26-18-44 0-44 0l-13-3-8-8-2 1-4 5-3-6s-4-3-7-3l-15 3s-12-5-15-8l-4-6-6 6-3 4a11 11 0 0 1-4-5c-2-4-1-5-1-5s-7 6-7 11l-2 19Z"></path> </g> <path id="Layer_2" fill="#7d7def" d="m179 377 27-5s0-8 3-10 7-3 10-1 5 4 5 3 3-8 7-9h17c5 0 32-12 32-12l11-6s-6-47-3-56-2-18 28-35 82-42 82-42l13-6a28 28 0 0 1 6-19c7-9 18-19 22-21s19-16 56-15 94 8 107 13 22 10 24 13 7 11 6 15-3 12-1 16 41 24 49 29l20 12 3 6s62 74 67 86 11 27 12 36l3 45s-8 60-8 79 4 26 4 36-1 37-4 55-11 80-11 90-1 28 0 37 8 30 11 34 13 11 14 12 10-2 12 0 4 6 1 11-16 19-21 22a32 32 0 0 1-11 4s-2-9 0-9l-19-8c-3-2-42-37-46-102l-7-118s-7-46-13-65-23-64-37-82-33-38-40-41-11-1-11-1l-23 28c-7 9-14 50-17 59l-18 58a597 597 0 0 1-93 161l-18 19s-70-49-116-105-80-105-80-105-24-38-33-56-22-50-22-50Z" data-name="Layer 2"></path> <g id="Layer_6" data-name="Layer 6"> <path d="m502 600 9-14 17 39c1 4 9 26 10 34s5 35 0 44-4 14-14 18-16 4-16 4 18-10 19-28-6-49-9-58l-16-39ZM169 295s13-7 20-6 25 2 39 10l40 25 19 15 6-3-5-18s-35-26-53-33-32-13-43-10-14 6-19 9-4 11-4 11Z" class="cls-5"></path> </g> <g id="Layer_7" data-name="Layer 7"> <path d="M975 534s-25 52-29 63-13 57-13 57l99 50 5 2s-18 65-24 103l-24 169 235 2 3-54c0-10 3-48 1-62l-5-30-19-55 72-43 4-3 11-9-1-14s-20-73-32-101l-31-69-10-20s-6-4-9-3-7-4-7-4 1-3-4 0l-49 27-23 16-10 7-5-3c-1 0-71-8-90-12s-45-14-45-14Z" class="cls-5"></path> <path d="m1112 564-5-23-4-19-24-3c-2-1-18-5-21-15l-7-34v-6h-3l2-18-9-4c-2-2-8-10-7-13s6-12 11-15l13-7 6-30 4-14s21 10 32 10 32 0 36-1 4-1 4 1l-3 28c0 4 0 18 3 21a37 37 0 0 1 6 7s8-13 18-15 18 0 21 6 3 21 0 26 3 5 3 5l2 31 4 18 7 13s-40 19-53 27l-36 24ZM1204 779s22 65 22 70l1 59-3 72 52 1 13-1 8-49c1-7 4-38 3-49l-1-25s4-7 4-12l1-17c-1-5-3-12-5-12a13 13 0 0 0-6 1s-4-28-6-36l-8-25-3-20ZM934 636l-40-27-10-7a70 70 0 0 0-8-3c-2 0-9-3-10-6l-4-13-86-92-67-71s-21-17-25-41 0-27-2-35-14-39-14-45a23 23 0 0 1 4-13c3-4 9-3 11 1a231 231 0 0 1 10 24c2 6 5 22 8 25s9 10 10 6 4-18 3-24 1-31-7-57-7-27-5-29 9 1 11 3l4 5s4-3 6-1l5 8s-1-5 3-3 10 10 10 10l1 7s2-4 5-1 5 19 7 25 5 27 4 35-8 33-10 39-6 15-5 18l1 10 153 113 68 50s-5 18-9 26-22 63-22 63Z" class="cls-6"></path> </g> <g id="Layer_4" data-name="Layer 4"> <path d="m416 193-62 30-30 17c-8 4-17 9-24 16a42 42 0 0 0-14 25c-2 10 0 20 1 31a529 529 0 0 0 15 64 535 535 0 0 0 23 62l14 30c4 8 9 16 15 22a40 40 0 0 0 25 12c9 1 19-1 28-5 16-8 30-22 40-37 10-16 17-33 23-51 6-21 12-42 16-63l4-17c0-2-3-3-4-1q-6 33-16 66c-5 17-10 35-19 51-8 15-19 30-33 41-14 10-35 18-52 9-8-5-14-12-18-19-6-9-10-18-14-27a530 530 0 0 1-40-122l-5-31c-1-10 0-21 6-29 5-8 13-13 20-18l28-16 60-30 15-6c2-1 0-5-2-4ZM432 695a374 374 0 0 0 45-54 489 489 0 0 0 36-60 619 619 0 0 0 27-61q11-28 19-57l12-48 1-6c0-2-3-3-4-1l-11 48-18 56a625 625 0 0 1-26 60 504 504 0 0 1-34 60 382 382 0 0 1-44 54l-6 6c-2 2 1 4 2 3Z"></path> <path d="M292 334c-13 8-26 15-41 19-2 1-1 5 1 4 15-5 29-12 42-20 2-1 0-4-2-3ZM412 197c4-21 22-37 42-44 12-5 24-7 37-7a312 312 0 0 1 39 0 350 350 0 0 1 40 5l20 4 17 5c8 3 18 8 21 17v16c0 6 2 11 7 15l15 9 15 7c10 4 20 9 29 16a77 77 0 0 1 6 6c2 1 5-1 3-3-8-8-18-14-29-19-10-5-21-9-31-15a39 39 0 0 1-7-5 13 13 0 0 1-4-7v-17c-1-11-9-17-18-21a98 98 0 0 0-15-5l-20-5a362 362 0 0 0-41-6 343 343 0 0 0-41-1c-12 0-25 1-38 5-21 6-41 20-48 42a51 51 0 0 0-2 7c-1 2 3 3 3 1ZM756 315a98 98 0 0 1 18 32 153 153 0 0 1 8 35l1 22c0 2 4 2 4 0-1-25-4-51-16-74a101 101 0 0 0-13-17c-1-2-4 1-2 2ZM589 358c26 14 47 35 63 59 16 25 28 52 35 81 9 35 12 72 15 108l2 55c1 17 2 35 6 52 6 28 21 58 50 70a62 62 0 0 0 9 3c3 0 4-3 1-4-30-7-48-36-55-64-4-17-5-34-6-51l-3-55c-2-36-5-72-14-107-6-29-17-58-33-83-15-25-34-47-59-62l-9-6c-2-1-4 2-2 4ZM774 488c5 16 6 32 6 49-1 18-3 37-6 55l-7 60c-2 20-4 41-2 62 1 9 3 19 8 28 4 7 10 13 17 17a30 30 0 0 0 6 2c3 0 4-4 1-4-8-2-14-7-19-14s-8-17-9-26a223 223 0 0 1-1-30l2-31 7-59c3-18 6-37 6-55 1-17 0-33-4-49l-1-5c-1-3-5-2-4 1ZM545 322a52 52 0 0 0 25 27c2 1 4-2 2-3a48 48 0 0 1-24-25 2 2 0 0 0-2-1 2 2 0 0 0-1 2Z"></path> <path d="m544 324 6-6a2 2 0 0 0-3-3l-6 7a2 2 0 0 0 3 2ZM575 404a88 88 0 0 1 11-21 85 85 0 0 1 8-9c3-3 6-6 10-6 2 1 2-3 0-3-5 0-8 2-11 5a87 87 0 0 0-9 10 92 92 0 0 0-13 23 2 2 0 0 0 1 2 2 2 0 0 0 3-1ZM672 264a82 82 0 0 1 15-10 2 2 0 1 0-1-3 86 86 0 0 0-16 11 2 2 0 1 0 2 2ZM694 275l7-5a2 2 0 0 0-2-3l-7 4a2 2 0 0 0 2 4ZM752 483l15-2a2 2 0 0 0 2-3 2 2 0 0 0-3-1l-15 3a2 2 0 1 0 1 3ZM760 371a19 19 0 0 1 3-2h1l1-1a16 16 0 0 1 3 0h3a2 2 0 1 0 0-4 20 20 0 0 0-12 4 2 2 0 0 0 2 3ZM751 537a53 53 0 0 0 16-1 2 2 0 1 0-1-4 50 50 0 0 1-15 1 2 2 0 0 0-2 2 2 2 0 0 0 2 2ZM750 591a28 28 0 0 1 11 1 2 2 0 0 0 2-1 2 2 0 0 0-1-3 31 31 0 0 0-12 0 2 2 0 0 0-2 1 2 2 0 0 0 2 2ZM749 642a25 25 0 0 0 11-2 2 2 0 0 0 1-2 2 2 0 0 0-2-1 24 24 0 0 1-5 1 16 16 0 0 1-2 0h-3a2 2 0 0 0-1 2 2 2 0 0 0 1 2ZM744 695l12-3a2 2 0 0 0 2-2 2 2 0 0 0-3-2l-12 3a2 2 0 1 0 1 4ZM772 787a89 89 0 0 0 27-22 2 2 0 0 0 0-3 2 2 0 0 0-3 0 86 86 0 0 1-26 21c-2 2 0 5 2 4Z"></path> <path d="M771 784c-2 4-4 9 0 11 2 2 5 1 7 0a48 48 0 0 0 7-4 86 86 0 0 0 20-22c2-2 3-5 3-8a7 7 0 0 0-4-5c-2-1-3 2-1 3l1 4-2 5a80 80 0 0 1-8 9 85 85 0 0 1-8 8l-5 4a32 32 0 0 1-5 3c-1 1-3 1-3-1-1-2 0-3 1-5 2-2-2-4-3-2ZM531 219a25 25 0 0 0-1 23c1 2 3 4 5 4a4 4 0 0 0 5-2 17 17 0 0 0 2-5 32 32 0 0 0 1-6 31 31 0 0 0-2-13 19 19 0 0 0-3-5 3 3 0 0 0-4-1 3 3 0 0 0-1 0l-2 6a35 35 0 0 0-2 7 33 33 0 0 0 0 6 20 20 0 0 0 2 6 7 7 0 0 0 3 4 4 4 0 0 0 5-2 27 27 0 0 0 3-6 32 32 0 0 0 2-6 22 22 0 0 0-1-12 11 11 0 0 0-4-5 4 4 0 0 0-5 0 14 14 0 0 0-3 6 36 36 0 0 0-1 7 31 31 0 0 0 1 13c1 3 3 7 8 7s5-6 5-9a29 29 0 0 0-3-18c-1-2-2-4-4-4-4-3-6 5-6 8a42 42 0 0 0-1 13 45 45 0 0 0 1 7c1 1 3 2 4 0a39 39 0 0 0 4-12 37 37 0 0 0 0-7v-3a8 8 0 0 0-1-3 3 3 0 0 0-4-1 3 3 0 0 0-1 1l-2 6a34 34 0 0 0 0 14 2 2 0 0 0 3 1 2 2 0 0 0 1 0c4-4 4-11 3-17a2 2 0 0 0-2-1c-5 0-4 8-4 11 0 2 0 5 2 7a3 3 0 0 0 4 0 3 3 0 0 0 1-1 2 2 0 0 0-1-2 2 2 0 0 0-2 0h1-1a12 12 0 0 0 0-2 25 25 0 0 1 0-4 27 27 0 0 1 0-4 7 7 0 0 1 0-1l-2-2c1 4 1 10-2 13l3 1a30 30 0 0 1-1-9 28 28 0 0 1 1-4l1-3v-1h-2a5 5 0 0 0 1 1 30 30 0 0 1 0 4 36 36 0 0 1 0 6 34 34 0 0 1-4 11h4a39 39 0 0 1 0-21 21 21 0 0 1 1-2 7 7 0 0 1 0-1 6 6 0 0 0 0 1l2 2a25 25 0 0 1 2 9 24 24 0 0 1 0 9l-2 3c-1 1-2-1-3-1l-2-8a32 32 0 0 1 1-10c0-1 1-8 3-7l2 3a15 15 0 0 1 1 5 24 24 0 0 1-1 10 41 41 0 0 1-2 4l-2 3-2-3a25 25 0 0 1 0-5 31 31 0 0 1 1-10 22 22 0 0 1 1-4 4 4 0 0 1 1-1h-1a1 1 0 0 1 1 0 13 13 0 0 0 1 3 27 27 0 0 1 2 8 28 28 0 0 1-1 11 19 19 0 0 1-1 2l-1 2-2-3a21 21 0 0 1 0-19c1-3-2-4-3-2ZM508 585c9 17 17 35 23 53 4 14 8 28 8 42 1 17-5 37-23 42-7 2-15 1-22 0-10-2-19-6-29-10-25-13-48-30-70-48-28-23-55-50-79-77a896 896 0 0 1-77-100c-20-30-38-61-52-94a318 318 0 0 1-15-40c-3-11-5-22-6-34-1-15 2-34 18-40 11-4 23-2 33 1 16 5 31 13 45 22l25 17c2 2 4-1 2-3-16-12-32-23-50-31-13-6-27-12-41-12-9 0-19 3-26 10-5 5-8 13-9 20-2 10-1 20 1 30a219 219 0 0 0 10 38c12 32 28 63 46 92a866 866 0 0 0 74 104 807 807 0 0 0 81 85c24 21 48 41 76 56a177 177 0 0 0 31 14c9 3 17 5 26 5 8-1 15-3 20-7 7-6 12-15 14-24 2-12 1-24-2-36-3-17-9-33-15-49l-14-28c-1-2-4 0-3 2Z"></path> <path d="M263 353a240 240 0 0 0 12 25c1 2 4 0 3-2a238 238 0 0 1-11-24 2 2 0 0 0-3-2 2 2 0 0 0-1 3ZM183 379l24-4a2 2 0 0 0 1-2c-1-4 0-9 4-11s8 1 10 4c1 2 3 2 3 0a11 11 0 0 1 9-9c2-1 5 0 7 1h9c2-1 1-5-1-4-3 1-6 0-9-1a15 15 0 0 0-8 1 15 15 0 0 0-10 11l3-1a11 11 0 0 0-20 9l1-2-24 4c-2 1-1 4 1 4Z"></path> <path d="M220 366a24 24 0 0 0 4 16 2 2 0 0 0 3 1 2 2 0 0 0 1-3 21 21 0 0 1-4-14 2 2 0 0 0-2-2 2 2 0 0 0-2 2ZM167 300c4-6 11-9 18-9 8-1 17 0 25 3a125 125 0 0 1 24 10l24 15 25 19c2 2 4-1 3-3a321 321 0 0 0-48-33 136 136 0 0 0-26-12c-8-2-17-4-26-3-9 0-17 4-22 11-1 2 2 4 3 2ZM500 601a272 272 0 0 1 21 54l5 28c1 9 0 18-4 26-4 7-11 13-19 14a2 2 0 0 0-2 2 2 2 0 0 0 3 2c8-2 14-7 19-13 5-7 7-16 7-25 0-10-2-20-4-30a274 274 0 0 0-9-29 278 278 0 0 0-14-31c-1-2-4 0-3 2Z"></path> </g> <g id="Layer_5" data-name="Layer 5"> <path d="M269 196h129a2 2 0 1 0 0-4H269c-2 0-2 4 0 4ZM982 682v189c0 12-8 21-20 21H72c-12 0-18-11-18-22V215c0-9 5-17 14-19a34 34 0 0 1 7 0h73c2 0 2-4 0-4H74c-10 0-19 5-23 15-2 5-1 10-1 16v648c0 13 8 24 22 25h891c14 0 23-12 23-25V682c0-3-4-3-4 0ZM630 196h334a18 18 0 0 1 17 11 21 21 0 0 1 1 8v324a2 2 0 0 0 4 0V220c0-6 0-11-2-17a22 22 0 0 0-20-11H630a2 2 0 0 0 0 4Z"></path> <path d="M49 264h232a2 2 0 0 0 0-4H49a2 2 0 0 0 0 4ZM754 263h230a1 1 0 0 0 0-3H754a1 1 0 0 0 0 3ZM811 229a10 10 0 0 0 14 14c4-2 7-6 8-11 0-4-4-8-8-9-6 0-11 3-14 7a2 2 0 0 0 1 3 2 2 0 0 0 2-1c2-3 5-5 9-5 2 0 5 2 6 4 0 3-2 6-5 8a7 7 0 0 1-7-1 7 7 0 0 1-3-3 6 6 0 0 1 1-4 2 2 0 0 0-1-3 2 2 0 0 0-3 1ZM876 226c-4 2-6 6-5 10s5 7 9 8c4 0 10-1 12-5 3-4 2-9-2-12-4-4-10-4-15-1a2 2 0 0 0 0 3 2 2 0 0 0 2 1c3-2 7-3 10-1a7 7 0 0 1 2 3 5 5 0 0 1 1 4c-1 2-5 4-8 4a9 9 0 0 1-5-1 7 7 0 0 1-1-1 2 2 0 0 1-1-1v-1a7 7 0 0 1 0-1 6 6 0 0 1 0-1 5 5 0 0 1 0-2 5 5 0 0 1 1-1v-1h1a2 2 0 0 0 1-3 2 2 0 0 0-2-1ZM937 222a13 13 0 0 0-5 11 12 12 0 0 0 8 10 11 11 0 0 0 11-4 10 10 0 0 0 1-12c-3-5-9-6-14-6a2 2 0 0 0-2 2 2 2 0 0 0 2 2c4 0 7 0 10 3a7 7 0 0 1 1 8 7 7 0 0 1-7 3 8 8 0 0 1-6-5 9 9 0 0 1 3-9 2 2 0 0 0 1-3 2 2 0 0 0-3 0ZM104 566a10 10 0 0 0 5 11 8 8 0 0 0 10-2 10 10 0 0 0 2-10 8 8 0 0 0-9-4c-4 1-8 5-7 10a2 2 0 0 0 3 1 2 2 0 0 0 1-2v-2s0-1 0 0a7 7 0 0 1 0-1h1v-1a8 8 0 0 1 1 0v-1c0-1 0 0 0 0a10 10 0 0 1 1 0l1-1a8 8 0 0 1 1 0c-1 0 0 0 0 0h1c-1 0 0 0 0 0l1 1h1a2 2 0 0 0 0 1s1 1 0 0a8 8 0 0 1 1 1 2 2 0 0 0 0 1s0-1 0 0a8 8 0 0 1 0 1 8 8 0 0 1 0 1l-1 1v1c0 1 0 0 0 0l-1 1-1 1a5 5 0 0 1-1 0h-1a8 8 0 0 1-1 0l-1-1h-1a9 9 0 0 1-1-1s0-1 0 0v-1a6 6 0 0 1-1-1 9 9 0 0 1 0-1c0-1 0 0 0 0v-2a2 2 0 0 0-4-1ZM134 569h158a2 2 0 0 0 0-4H134a2 2 0 0 0 0 4ZM108 602c-3 3-3 6-1 9s5 5 8 3a8 8 0 0 0 5-7 7 7 0 0 0-6-8 9 9 0 0 0-10 4 2 2 0 0 0 4 2v-1c1 0 0 0 0 0h1a8 8 0 0 1 1-1h2a5 5 0 0 1 1 0s-1 0 0 0a7 7 0 0 1 1 0v1h1c-1 0 0 0 0 0l1 1a8 8 0 0 0 0 1v2c0 1 0 0 0 0a7 7 0 0 0-1 1c0 1 0 0 0 0a6 6 0 0 1 0 1h-1s1 0 0 0a2 2 0 0 1 0 1s-1 0 0 0h-2c-1 0 0 0 0 0l-1-1s0 1 0 0h-1c0-1 0 0 0 0a7 7 0 0 1 0-1 2 2 0 0 1 0-1 6 6 0 0 1-1 0v-1 1-1c0-1 0 0 0 0l1-1v-1s0 1 0 0a2 2 0 0 0 0-3 2 2 0 0 0-2 0ZM142 608h189a2 2 0 0 0 0-4H142a2 2 0 0 0 0 4ZM194 644h173a2 2 0 0 0 0-4H194a2 2 0 0 0 0 4ZM197 669h76l44 1 42 1 36 2h4c2 0 2-4 0-4l-35-1-41-1-44-1-42-1h-40a2 2 0 0 0 0 4ZM559 644h97a2 2 0 0 0 0-4h-97a2 2 0 0 0 0 4ZM562 667h91a2 2 0 0 0 0-3h-4a2 2 0 0 0 0 3h4a2 2 0 0 0 0-3h-91a2 2 0 0 0 0 3ZM114 742a4 4 0 0 0-1 0c0-1 0 0 0 0a1 1 0 0 1 0-1 3 3 0 0 1 0-1v1l1-1s0-1 0 0v-1s1-1 0 0l1-1v-1h1c1 0 0 0 0 0a6 6 0 0 1 1 0h1a7 7 0 0 1 1 0c1 0 0 0 0 0a3 3 0 0 1 1 0 5 5 0 0 1 1 1 7 7 0 0 1 0 1 7 7 0 0 1 1 1 1 1 0 0 0 0 1v-1 2s0-1 0 0l-1 1c0 1 0 1 0 0v1h-1l-1 1 1-1-1 1h-1 1a4 4 0 0 0-1 0h-2v-1s0 1 0 0a7 7 0 0 1-1 0l-1-1v-1a2 2 0 0 0-4 1 8 8 0 0 0 7 5c3 1 6 0 8-3a9 9 0 0 0-1-9 8 8 0 0 0-4-3 7 7 0 0 0-5 0c-4 2-6 6-5 10a2 2 0 0 0 4-1ZM112 781c-3 2-4 6-2 9 2 4 7 4 11 2a10 10 0 0 0 4-10c-1-4-4-7-8-7s-8 6-5 10a2 2 0 1 0 3-2v-3h1c0-1 0 0 0 0v-1h1a2 2 0 0 1 1 0s-1 0 0 0c0 0 1 0 0 0a2 2 0 0 1 1 0 8 8 0 0 1 1 1c-1 0 0 0 0 0l1 1a10 10 0 0 1 0 1s0-1 0 0l1 1v2a6 6 0 0 1-1 0 4 4 0 0 1 0 1 7 7 0 0 1 0 1 7 7 0 0 1-2 1 6 6 0 0 1 0 1 8 8 0 0 1-1 0v1a5 5 0 0 1-1 0h-1a7 7 0 0 1-1 0v-1h-1l-1-1a7 7 0 0 1 0-1v-1s0-1 0 0a1 1 0 0 1 0-1s0-1 0 0a2 2 0 0 1 1-1 2 2 0 0 0-2-3ZM144 743h519a2 2 0 0 0 0-4H144a2 2 0 0 0 0 4ZM145 784q101 3 202 2 101 0 201-3l113-4c2 0 2-3 0-3l-202 6H259l-114-2c-2 0-2 4 0 4ZM115 823c-4 1-4 6-3 9 3 5 9 4 14 2s9-6 7-11a10 10 0 0 0-10-7c-6 1-10 5-11 10a2 2 0 0 0 1 2 2 2 0 0 0 2-1 12 12 0 0 1 6-7 6 6 0 0 1 8 2 4 4 0 0 1 0 4l-3 3a16 16 0 0 1-5 3 7 7 0 0 1-3 0 5 5 0 0 1-1 0v-1h-1c1 0 1 0 0 0a4 4 0 0 1-1-3v-1a2 2 0 0 1 1 0c-1 0 0-1 0 0v-1a2 2 0 0 0-1-3ZM153 826h235a2 2 0 0 0 0-4H153a2 2 0 0 0 0 4ZM142 476a43 43 0 0 0-30 6 2 2 0 0 0-1 2c2 6 8 10 14 12 6 1 13 2 18 5a11 11 0 0 1 6 7l1-2a40 40 0 0 1-33-2c-2-1-4 2-2 3a43 43 0 0 0 36 2 2 2 0 0 0 2-2c-1-7-8-10-14-12s-13-2-18-5c-3-2-5-4-6-7l-1 2a39 39 0 0 1 27-5c2 0 3-3 1-4Z"></path> <path d="m119 456 9 51 3 14c0 2 4 1 3-1l-9-50-2-15c-1-2-4-1-4 1ZM132 450a238 238 0 0 0 7 63l6 17c0 2 4 1 3-1a235 235 0 0 1-12-61v-18c0-2-4-2-4 0Z"></path> <path d="M563 59q1-2 4-2a68 68 0 0 1 8-2h9l9-1 1 2a7 7 0 0 1 0 2 1 1 0 0 1-1 1h-8l-10 1a53 53 0 0 0-8 1 34 34 0 0 0 4 7l6 8a54 54 0 0 1 5 7 2 2 0 0 1 0 2 13 13 0 0 1-2 2l-1 1-1-1-3-5-4-6-4-6-3-6-1-1v-1a8 8 0 0 1 0-1 5 5 0 0 1 0-2ZM602 101a3 3 0 0 1 2-2 6 6 0 0 1 3 0 5 5 0 0 1 3 3 4 4 0 0 1 0 3 3 3 0 0 1-2 2 6 6 0 0 1-4-1 5 5 0 0 1-2-2 4 4 0 0 1 0-3Zm7-41a6 6 0 0 1 3-3 12 12 0 0 1 2-1 19 19 0 0 1 4-1 17 17 0 0 1 4 0 23 23 0 0 1 6 2 14 14 0 0 1 4 3 14 14 0 0 1 3 6 8 8 0 0 1 0 6 16 16 0 0 1-3 5 43 43 0 0 1-6 4l-6 5a54 54 0 0 0-6 4 12 12 0 0 0-3 4h-1a5 5 0 0 1-2 0v-3a12 12 0 0 1 3-4 40 40 0 0 1 5-4l6-4a38 38 0 0 0 5-4 14 14 0 0 0 3-5 5 5 0 0 0 0-4 9 9 0 0 0-2-4 14 14 0 0 0-4-2 10 10 0 0 0-4-1 9 9 0 0 0-3 1 14 14 0 0 0-3 1 7 7 0 0 0-1 1 3 3 0 0 1-3 1 2 2 0 0 1-1-1 3 3 0 0 1 0-2ZM653 67h2a39 39 0 0 1 4 1 2 2 0 0 1 2 0l1 2a28 28 0 0 1 5 4 26 26 0 0 1 4 5 25 25 0 0 1 3 6 19 19 0 0 1 1 6 19 19 0 0 1-2 7 9 9 0 0 1-6 5 13 13 0 0 1-9 0l-3-2-3-1a30 30 0 0 0-3-1l-4 8a69 69 0 0 0-4 13 4 4 0 0 1 0 1 1 1 0 0 1-1 1 2 2 0 0 1-2 0 2 2 0 0 1-1-1 2 2 0 0 1 0-2 62 62 0 0 1 4-11l5-11a2 2 0 0 1 0-2 1 1 0 0 1 1 0l2-4 2-3 1-3 2-4 1-3 2-5a6 6 0 0 1-1-1 7 7 0 0 0-2-1 3 3 0 0 1-1-2 3 3 0 0 1 0-2Zm-2 28a28 28 0 0 1 3 1l3 2 3 1h5a6 6 0 0 0 4-3 16 16 0 0 0 0-12 20 20 0 0 0-8-10 91 91 0 0 1-4 8l-2 4-2 5ZM694 86a2 2 0 0 1 2-1 3 3 0 0 1 2 0l1 2-6 15-4 13a21 21 0 0 1 4 2l6 2 5 3a23 23 0 0 0 7 2l1-7 3-6 1-6a63 63 0 0 0 2-7 2 2 0 0 1 1-2 3 3 0 0 1 2 1 4 4 0 0 1 2 1 2 2 0 0 1 0 2 76 76 0 0 1-2 9l-4 10-3 10a67 67 0 0 0-2 10 48 48 0 0 0 0 11 2 2 0 0 1-2 1 3 3 0 0 1-2 0 2 2 0 0 1-2-2q0-9 3-21a31 31 0 0 1-6-2l-6-3-5-2-4-2a89 89 0 0 1-8 16 2 2 0 0 1-2 2 3 3 0 0 1-2-1 2 2 0 0 1-1-1 2 2 0 0 1 0-1 128 128 0 0 0 8-17 2 2 0 0 1 0-1 2 2 0 0 1 2-1l4-13 5-16ZM745 106q1-2 2-1l4 2a2 2 0 0 1 2-1l1 2a28 28 0 0 1 5 4 26 26 0 0 1 4 5 25 25 0 0 1 3 6 19 19 0 0 1 0 13 9 9 0 0 1-6 6 13 13 0 0 1-9-1l-3-1-4-2a27 27 0 0 0-3-1l-4 8a69 69 0 0 0-4 13 4 4 0 0 1 0 1 1 1 0 0 1-1 1 2 2 0 0 1-1 0 2 2 0 0 1-1-1 2 2 0 0 1 0-2 61 61 0 0 1 3-11l5-11a2 2 0 0 1 0-1 1 1 0 0 1 1-1l2-3 2-4 1-3 2-4 2-3 2-5a7 7 0 0 1-2-1 7 7 0 0 0-1-1 3 3 0 0 1-2-1 3 3 0 0 1 0-2Zm-2 28a28 28 0 0 1 3 1l3 1 3 1a7 7 0 0 0 6 1 6 6 0 0 0 3-4 16 16 0 0 0 0-12 20 20 0 0 0-8-10 86 86 0 0 1-5 13l-3 5ZM111 229a4 4 0 0 1 1-4 60 60 0 0 1 4-6l5-6 5-6 2 1a6 6 0 0 1 1 1 1 1 0 0 1 0 2l-4 5-6 6a46 46 0 0 0-4 5 30 30 0 0 0 7 2l8 1a48 48 0 0 1 7 1 2 2 0 0 1 2 2 11 11 0 0 1 0 2v1a1 1 0 0 1-1 0l-5-1-6-1-6-1-6-2h-2a6 6 0 0 1-1-1 4 4 0 0 1-1-1ZM151 235a45 45 0 0 0 1-8v-9a44 44 0 0 1 1-7l1-11q0-7 2-11a2 2 0 0 1 1-2 3 3 0 0 1 1 0 1 1 0 0 1 1 1l-1 13q0 8-2 11v11a75 75 0 0 1-2 12v1a3 3 0 0 1-2 0 2 2 0 0 1-1-1ZM167 184q-1-2 2-4a13 13 0 0 1 3-3 9 9 0 0 1 8 0 10 10 0 0 1 5 5q2 5 0 11a18 18 0 0 1 5-1 26 26 0 0 1 6 0 33 33 0 0 1 5 1 16 16 0 0 1 5 3 9 9 0 0 1 3 3q5 10-17 21a2 2 0 0 1 0 1 2 2 0 0 1-2 1 1 1 0 0 1-1 0 1 1 0 0 1-1 0 2 2 0 0 1 0-1c-3 1-4 0-5-1v-2a6 6 0 0 1 2-1 16 16 0 0 0 2 0l-4-6-4-7-4-7-4-7Zm4-1 9 15a195 195 0 0 1 11 18l3-1 3-2a24 24 0 0 0 4-3 23 23 0 0 0 3-3 8 8 0 0 0 1-3 6 6 0 0 0 0-4 5 5 0 0 0-3-3 11 11 0 0 0-4-1 49 49 0 0 0-5 0l-6 1a28 28 0 0 1-4 0 2 2 0 0 1-1 0 3 3 0 0 1-1-1 5 5 0 0 1 0-3 19 19 0 0 1 1-3 15 15 0 0 0 1-3 6 6 0 0 0-1-3 6 6 0 0 0-3-4 6 6 0 0 0-5 0 6 6 0 0 0-3 3ZM214 184a38 38 0 0 1-3-11 31 31 0 0 1 0-6 13 13 0 0 1 1-6 7 7 0 0 1 4-3 2 2 0 0 1 1 0 3 3 0 0 1 1 1l1-1a8 8 0 0 1 5 0 15 15 0 0 1 6 3 37 37 0 0 1 4 5 53 53 0 0 1 4 6 58 58 0 0 1 3 5q7 17-4 23a11 11 0 0 1-7 0 15 15 0 0 1-6-3 31 31 0 0 1-6-5 39 39 0 0 1-4-8Zm3-2a42 42 0 0 0 2 4 39 39 0 0 0 3 4 35 35 0 0 0 4 4 14 14 0 0 0 4 3 7 7 0 0 0 5 0q8-5 2-18l-2-4-2-4a24 24 0 0 0-3-4 27 27 0 0 0-2-3 12 12 0 0 0-8-3 4 4 0 0 0-1 1 2 2 0 0 1-2 0 12 12 0 0 0-2 5 14 14 0 0 0 0 5 31 31 0 0 0 1 5 37 37 0 0 0 1 5ZM241 147a2 2 0 0 1 0-1 1 1 0 0 1 1-1 1 1 0 0 1 1 0l2 1a19 19 0 0 1 2-1 23 23 0 0 1 10-2 29 29 0 0 1 10 2 28 28 0 0 1 9 5 23 23 0 0 1 6 8 19 19 0 0 1 1 6 16 16 0 0 1 0 5 16 16 0 0 1-2 4 25 25 0 0 1-3 5 34 34 0 0 1-3 3 52 52 0 0 1-5 4l-5 3a2 2 0 0 1 1 1 2 2 0 0 1-1 1 1 1 0 0 1-1 0 1 1 0 0 1-1-1 3 3 0 0 0-1-1l-2-1v-2l-6-12-5-11-1-5-2-4a13 13 0 0 0-4-5 1 1 0 0 1-1-1Zm6 2a74 74 0 0 1 4 9l8 16 5 10a32 32 0 0 0 5-3 29 29 0 0 0 5-4 25 25 0 0 0 4-6 15 15 0 0 0 1-5 13 13 0 0 0-1-7 16 16 0 0 0-4-5 22 22 0 0 0-6-4 34 34 0 0 0-7-2 28 28 0 0 0-7 0 23 23 0 0 0-7 1ZM277 134a2 2 0 0 1 0-2 3 3 0 0 1 2-2 2 2 0 0 1 1 0 42 42 0 0 0 20 12 200 200 0 0 1 7-22 2 2 0 0 1 1-1 1 1 0 0 1 1 0 3 3 0 0 1 1 1 3 3 0 0 1 0 2l-5 20a9 9 0 0 0 0 4 33 33 0 0 0 1 4l2 3 1 3 1 2 1 3a9 9 0 0 1 0 2 9 9 0 0 1 0 3 5 5 0 0 1-2 2 8 8 0 0 1-2 1 2 2 0 0 1-2 1 2 2 0 0 1-1-1 2 2 0 0 1 0-2 1 1 0 0 1 1-1 2 2 0 0 1 1 0q3-1-1-9l-1-4-3-4-2-4a48 48 0 0 1-12-4 40 40 0 0 1-9-7 2 2 0 0 1-1 0ZM331 145a1 1 0 0 1 0-1l5-5 5-6a39 39 0 0 0 4-6 41 41 0 0 0-7-2l-8-1a59 59 0 0 1-7-2 2 2 0 0 1-1-1 7 7 0 0 1-1-1v-2a1 1 0 0 1 1 0 510 510 0 0 0 23 5h1l1 1h1a4 4 0 0 1 1 1 4 4 0 0 1 0 1 4 4 0 0 1-1 4 59 59 0 0 1-3 5l-6 7-4 5a1 1 0 0 1-1 0h-1a6 6 0 0 1-2-2Z" class="cls-7"></path> <path d="M1305 512a1 1 0 0 1 1-2l6-7 7-9a55 55 0 0 0 5-8 59 59 0 0 0-10-2l-11-2a84 84 0 0 1-10-1 2 2 0 0 1-2-2 10 10 0 0 1-1-2v-2a2 2 0 0 1 2 0l10 2 12 2 10 2h1l1 1h1a7 7 0 0 1 2 1 6 6 0 0 1 1 1l-1 6a85 85 0 0 1-6 8l-7 9-6 8a2 2 0 0 1-1 0l-2-1a8 8 0 0 1-2-2ZM1138 180a1 1 0 0 1-1 0l-7-7q-4-5-8-7a54 54 0 0 0-8-6 59 59 0 0 0-3 10l-2 11a81 81 0 0 1-3 10 2 2 0 0 1-2 1 11 11 0 0 1-2 1h-2a2 2 0 0 1 0-2l3-9 3-12 2-10 1-1v-2l1-1a7 7 0 0 1 1-1 6 6 0 0 1 1-1c2 0 4 0 5 2a88 88 0 0 1 8 5l9 8 7 7a1 1 0 0 1 1 1l-1 2a8 8 0 0 1-3 1ZM1297 171a5 5 0 0 1 2-4 12 12 0 0 1 1-2 17 17 0 0 1 3-2 16 16 0 0 1 4-1 22 22 0 0 1 5-1 13 13 0 0 1 5 2 13 13 0 0 1 5 3 8 8 0 0 1 2 5 15 15 0 0 1-1 6 41 41 0 0 1-3 6l-4 6a51 51 0 0 0-3 6 12 12 0 0 0-2 5h-1a5 5 0 0 1-1 1c-1 0-2-1-2-3a11 11 0 0 1 1-4 36 36 0 0 1 3-6l4-5a35 35 0 0 0 3-6 14 14 0 0 0 1-5 5 5 0 0 0-1-4 9 9 0 0 0-4-2 13 13 0 0 0-4-1 10 10 0 0 0-3 1 8 8 0 0 0-3 2 14 14 0 0 0-2 2 7 7 0 0 0-1 2 3 3 0 0 1-2 1 2 2 0 0 1-1-1 3 3 0 0 1-1-1Zm8 38a3 3 0 0 1 2-2 6 6 0 0 1 3-1 5 5 0 0 1 3 1 4 4 0 0 1 2 3 3 3 0 0 1-2 2 6 6 0 0 1-3 1 5 5 0 0 1-3-1 3 3 0 0 1-2-3Z" class="cls-8"></path> <path d="M968 105c-1 2 1 5 3 6a8 8 0 0 0 6 1 9 9 0 0 0 8-8c0-5-4-10-8-11-5-1-10 1-13 5a16 16 0 0 0 1 22 16 16 0 0 0 5 3c5 2 11 1 16-1 4-2 9-5 11-10s1-11 0-16c-2-6-4-11-9-15a3 3 0 0 0-3 0 3 3 0 0 0 0 3 23 23 0 0 1 6 10 32 32 0 0 1 2 11 12 12 0 0 1-4 9 23 23 0 0 1-10 5c-7 2-14-4-14-11a10 10 0 0 1 4-9c3-2 6-2 9 0a6 6 0 0 1 2 4 4 4 0 0 1-2 4 5 5 0 0 1-3 1 4 4 0 0 1-1-1l-1-1a3 3 0 1 0-5-1ZM1329 340a3 3 0 0 1 2 2 4 4 0 0 1-1 3 5 5 0 0 1-7 1 8 8 0 0 1-2-8c1-3 4-6 7-7s7-2 10 0a16 16 0 0 1 3 6 39 39 0 0 1 2 6c1 7 0 16-6 21-5 5-14 6-18-1-2-2-6 0-5 3 6 8 17 9 25 4 9-7 11-18 8-29a47 47 0 0 0-3-8 15 15 0 0 0-4-6c-5-3-11-2-15 0s-8 6-9 11a13 13 0 0 0 4 12 10 10 0 0 0 14-2 9 9 0 0 0 2-7 8 8 0 0 0-6-6 3 3 0 1 0-1 5ZM1339 637l26-12a3 3 0 1 0-2-4l-26 12a3 3 0 1 0 2 5ZM1350 689l16 2a3 3 0 0 0 1-5l-15-2a3 3 0 0 0-3 2 3 3 0 0 0 1 3Z"></path> </g> <g id="Layer_3" data-name="Layer 3"> <g clip-path="url(#clip-path)"> <path d="M1066 364a125 125 0 0 0-6 22l-2 11-1 6-1 4-4 1a46 46 0 0 0-5 3 48 48 0 0 0-9 6 21 21 0 0 0-6 8 13 13 0 0 0 1 10 25 25 0 0 0 6 8c3 2 6 6 10 5 2-1 1-5-1-4l-4-2-3-3a19 19 0 0 1-5-6c-2-7 3-12 7-15a47 47 0 0 1 8-5l5-2a9 9 0 0 0 4-3 7 7 0 0 0 1-4v-5l2-11a126 126 0 0 1 7-23 2 2 0 0 0-4-1Z"></path> <path d="m1048 446-1 18a2 2 0 0 0 0 2 26 26 0 0 0 29-6c2-2-1-4-2-2a22 22 0 0 1-25 5l1 1 2-18c0-2-4-2-4 0Z"></path> <path d="M1073 455a14 14 0 0 0 2 4 15 15 0 0 0 4 2 2 2 0 0 0 3-1 2 2 0 0 0 0-2 2 2 0 0 0-2 0v-1l1 1a12 12 0 0 1-3-2 12 12 0 0 1-2-2l1 1a12 12 0 0 1-1-2 2 2 0 0 0-3 0 2 2 0 0 0 0 2ZM1049 464a146 146 0 0 0 2 21l5 19a27 27 0 0 0 11 12 45 45 0 0 0 15 6 106 106 0 0 0 36 1c12-2 23-6 32-14s15-18 17-29a2 2 0 0 0-2-2 2 2 0 0 0-2 2c-1 9-7 18-13 25-8 7-18 11-28 14-12 2-24 2-36 0-9-2-20-5-25-14a39 39 0 0 1-3-9l-3-10a139 139 0 0 1-2-22c0-2-4-2-4 0ZM1157 461c1 6 10 8 15 5 4-2 6-5 8-8a69 69 0 0 0 7-10c3-8 5-16 2-24-2-7-8-13-16-14-4-1-8 1-12 3s-8 5-10 9c-1 2 3 4 4 2 1-3 4-5 6-7s6-3 10-3c6-1 11 3 14 9s2 13 0 20a55 55 0 0 1-5 9 39 39 0 0 1-6 8c-2 2-5 4-8 4-2-1-5-2-6-4a2 2 0 0 0-3 1Z"></path> <path d="M1159 440a19 19 0 0 1 15-14 2 2 0 0 0 2-2 2 2 0 0 0-3-2 23 23 0 0 0-18 17c0 3 3 4 4 1Z"></path> <path d="m1167 428 1 1v1a25 25 0 0 1 2 3s0 1 0 1l1 1a24 24 0 0 1 0 3 2 2 0 0 0 3 2 2 2 0 0 0 1-3 27 27 0 0 0-5-12 2 2 0 0 0-3 0 2 2 0 0 0 0 3ZM1076 394a12 12 0 0 0-1 14 2 2 0 0 0 3 0 16 16 0 0 0 5-10 9 9 0 0 0-1-5 3 3 0 0 0-5-1 10 10 0 0 0-3 5 9 9 0 0 0-1 5 5 5 0 0 0 3 4c2 0 4-1 5-3a11 11 0 0 0-1-11 2 2 0 0 0-2-1 2 2 0 0 0-1 0 15 15 0 0 0-3 8 2 2 0 0 0 2 2 2 2 0 0 0 2-2 11 11 0 0 1 2-5h-3a7 7 0 0 1 1 3 7 7 0 0 1 0 3 6 6 0 0 1 0 1 5 5 0 0 1-1 1c1 0 0 0 0 0v-1s0-1 0 0v-1a6 6 0 0 1 0-1 9 9 0 0 1 2-4c-1 0 0 0 0 0h-1 1s-1 0 0 0a4 4 0 0 1 0 1v1a13 13 0 0 1 0 2 13 13 0 0 1-1 3 12 12 0 0 1-3 3l3 1a9 9 0 0 1 1-10 2 2 0 0 0-1-2 2 2 0 0 0-2 0ZM1102 524a129 129 0 0 0 8 34 2 2 0 0 0 2 2 2 2 0 0 0 2-3 125 125 0 0 1-9-33 2 2 0 0 0-1-1 2 2 0 0 0-2 1ZM1189 452a114 114 0 0 0 3 48c1 4 1 8 5 10 2 1 3-3 1-4l-2-4-2-7a105 105 0 0 1-2-14 109 109 0 0 1 1-28 2 2 0 0 0-2-2 2 2 0 0 0-2 1ZM974 533a412 412 0 0 0-38 89l-6 26c-1 3 3 4 3 1a410 410 0 0 1 13-46 404 404 0 0 1 18-44l13-24c1-2-2-4-3-2Z"></path> <path d="M976 538a404 404 0 0 0 52 13l54 8 30 3a2 2 0 1 0 0-4l-53-6-53-9-29-8c-2-1-3 3-1 3ZM1115 566a392 392 0 0 1 66-43l20-10h-2l7 6c1 2 4-1 2-3l-7-6a2 2 0 0 0-2 0 394 394 0 0 0-69 40l-18 14a2 2 0 0 0 3 2Z"></path> <path d="M1124 571a556 556 0 0 1 56-34l16-8c2-2 0-5-2-4a555 555 0 0 0-56 32l-16 10c-2 2 0 5 2 4ZM1091 584a405 405 0 0 0-40 77c-11 27-20 55-27 84s-12 58-17 87l-13 95-14 102-1 13a2 2 0 0 0 1 2 618 618 0 0 0 145 16l42-1c3-1 3-4 0-4a613 613 0 0 1-146-7l-40-8 1 2 14-102a5128 5128 0 0 1 29-183c7-29 15-57 25-85a415 415 0 0 1 38-77l6-9c1-2-2-4-3-2ZM932 655q34 19 70 36l20 9a2 2 0 0 0 2 0 2 2 0 0 0 0-3q-36-16-71-34l-19-11c-2-1-4 2-2 3ZM1141 677c-5 5-1 13 2 19l9 23 18 45 10 26a2 2 0 0 0 2 1 2 2 0 0 0 1 0 721 721 0 0 0 81-45l21-14c2-2 0-5-1-3a718 718 0 0 1-80 47l-23 12 3 1-35-88-5-13c-1-2-2-6 0-9a2 2 0 0 0 0-2 2 2 0 0 0-3 0ZM1215 521a752 752 0 0 1 62 146l11 44c1 2 5 1 4-1a757 757 0 0 0-53-151l-21-40c-1-2-4 0-3 2Z"></path> <path d="m1204 780 9 28 8 28a145 145 0 0 1 5 29 272 272 0 0 1 0 29l-5 119-3 67c0 3 4 3 4 0l5-120 3-60c0-19 1-39-4-58-2-10-5-21-9-31l-9-32c-1-2-5-1-4 1ZM1274 740c1 11 5 20 8 30a201 201 0 0 1 7 30 166 166 0 0 1 2 18 2 2 0 0 0 4 0l2-1 3 3a40 40 0 0 1 2 12 49 49 0 0 1-5 24c-1 2 3 4 4 2a53 53 0 0 0 5-23 53 53 0 0 0-1-12c-1-4-2-8-6-9s-7 0-8 4h4a193 193 0 0 0-5-31l-9-30a92 92 0 0 1-3-17 2 2 0 0 0-2-1 2 2 0 0 0-2 1Z"></path> <path d="m1278 1043 15-73c4-23 8-47 9-71a240 240 0 0 0-1-41 2 2 0 0 0-2-2 2 2 0 0 0-2 2c3 24 2 48-1 72l-14 71-8 41c0 2 3 3 4 1ZM1070 361c-3-3-8-4-12-5s-8-2-12-5c-7-5-10-14-11-23a108 108 0 0 1-1-19l-2 2 12 7a2 2 0 0 0 3-2 25 25 0 0 1 8-27l-3-2a14 14 0 0 0 6 12 2 2 0 0 0 2-1 30 30 0 0 1 8-10l-3-1c4 6 9 12 16 15h11c4-1 8-3 12-2 2 1 6 3 5 6-1 2 2 3 3 2l7-6h-3c3 5 8 9 14 11 7 2 14 1 22 0a99 99 0 0 1 23 0 67 67 0 0 1 20 5c6 2 11 6 13 13a2 2 0 0 0 2 1 2 2 0 0 0 1-1 25 25 0 0 1 9-5l-3-2a14 14 0 0 1-4 10 2 2 0 0 0 0 2 2 2 0 0 0 2 1 28 28 0 0 1 16 0l-1-3-9 10a2 2 0 0 0 0 3 2 2 0 0 0 1 0 13 13 0 0 1 10 5l1-3a17 17 0 0 1-12 3c-2-1-2 2-1 3 6 4 9 11 10 18 1 8 0 16-2 24-4 18-12 35-18 51a185 185 0 0 0-10 29h4l-6-9a2 2 0 0 0-3 2 15 15 0 0 1-2 9c-1 2 2 4 3 2a19 19 0 0 0 2-12l-3 1 5 9a2 2 0 0 0 3 0 2 2 0 0 0 1-1c4-18 12-35 19-52a183 183 0 0 0 9-27c2-8 3-17 2-25s-5-17-12-22l-1 3a20 20 0 0 0 13-3 2 2 0 0 0 1-2 2 2 0 0 0 0-1 16 16 0 0 0-13-6l1 3 9-9a2 2 0 0 0 0-3 31 31 0 0 0-18-1l1 3a18 18 0 0 0 5-12 2 2 0 0 0-2-2 28 28 0 0 0-10 7l4 1c-4-13-18-18-30-20a90 90 0 0 0-23-2c-8 1-16 3-24 2-6-1-13-4-16-10a2 2 0 0 0-2-1 2 2 0 0 0-1 1l-7 6 3 1c1-3 0-6-3-8a13 13 0 0 0-10-3l-13 3a15 15 0 0 1-9-4 49 49 0 0 1-8-10 2 2 0 0 0-3 0 33 33 0 0 0-9 11h2a11 11 0 0 1-4-9 2 2 0 0 0-2-1 2 2 0 0 0-1 0 29 29 0 0 0-9 31l3-2-13-7a2 2 0 0 0-2 1 2 2 0 0 0-1 0c0 11 0 22 4 32 4 9 10 15 19 18 5 1 10 2 14 5 2 2 5-1 3-3Z"></path> <path d="M1072 366a96 96 0 0 0 53 9 95 95 0 0 0 15-3l-3-1c3 8 0 17-1 26a42 42 0 0 0 3 24 40 40 0 0 0 7 11 2 2 0 0 0 3 0 2 2 0 0 0 1 0 27 27 0 0 1 8-13 2 2 0 0 0 0-2 2 2 0 0 0-2 0 31 31 0 0 0-10 14l3-1a37 37 0 0 1-10-21c-1-8 2-16 3-25 1-5 1-10-1-14a2 2 0 0 0-2-1 93 93 0 0 1-52-1 91 91 0 0 1-13-5c-2-1-4 2-2 3ZM864 580a36 36 0 0 0-3-4 305 305 0 0 0-27-30l-28-29-31-33-31-32-25-27-17-19-3-3-1-1s0-1 0 0v-1a90 90 0 0 1-5-8c-3-6-6-12-7-18v-21a73 73 0 0 0-4-18c-4-12-9-23-11-36-1-5-2-12 2-16 2-1 5-2 7-1s3 4 4 7a191 191 0 0 1 7 19l6 18c1 5 4 9 8 13 2 2 4-1 3-3-5-3-7-9-9-14l-5-18a184 184 0 0 0-8-20c-1-2-2-4-5-6a9 9 0 0 0-7 0c-12 5-7 23-4 32 3 12 9 24 11 36l1 21a50 50 0 0 0 4 19 102 102 0 0 0 8 16 22 22 0 0 0 2 2l13 15 23 25 30 31 32 34 30 31 23 25 13 15 1 1c1 2 4 0 3-2Z"></path> <path d="M712 338c3-14 5-27 5-40-1-13-4-25-7-37l-8-21c-1-2-4-1-3 1l11 36a108 108 0 0 1 3 18 112 112 0 0 1-1 20l-3 22c-1 2 3 3 3 1Z"></path> <path d="m702 239 1-7c1-2 3-2 5-1l5 5a82 82 0 0 1 4 7 128 128 0 0 1 11 33 127 127 0 0 1 3 19c0 3 4 3 3 0a132 132 0 0 0-15-57c-3-5-6-11-12-11a7 7 0 0 0-8 4v9c0 2 4 1 3-1Z"></path> <path d="M717 238c4-1 7 2 9 6a65 65 0 0 1 6 13 115 115 0 0 1 7 30 117 117 0 0 1 0 18c0 3 4 3 4 0a118 118 0 0 0-3-33 116 116 0 0 0-4-16l-7-15c-3-4-7-7-12-7a2 2 0 0 0-2 2 2 2 0 0 0 2 2Z"></path> <path d="M730 242a25 25 0 0 1 10 21c0 3 4 3 4 0a29 29 0 0 0-13-24c-2-1-3 2-1 3ZM745 258a131 131 0 0 1 8 74 141 141 0 0 1-7 24c-3 9-7 18-4 28 0 2 4 1 3-1-2-8 1-17 4-25a151 151 0 0 0 8-24 135 135 0 0 0 0-50 130 130 0 0 0-8-27 2 2 0 0 0-2-1 2 2 0 0 0-2 2ZM862 587a16 16 0 0 0 3 8 13 13 0 0 0 5 4c4 2 8 3 13 3a2 2 0 0 0 0-4c-4 0-8 0-11-2a10 10 0 0 1-4-3 12 12 0 0 1-2-6 2 2 0 1 0-4-1 1 1 0 0 0 0 1Z"></path> <path d="M883 604a439 439 0 0 0 39 27l11 6a2 2 0 0 0 2-3 433 433 0 0 1-50-33 2 2 0 0 0-2 0 2 2 0 0 0 0 3ZM744 386l43 32 43 32 43 31 43 32 42 32 6 4a2 2 0 0 0 2-3l-43-32-43-32-43-31-43-32-42-32-6-4a2 2 0 0 0-2 1 2 2 0 0 0 0 2Z"></path> </g> <path d="m52 963 215 10h113c37 0 73-3 109-8 48-5 96-11 145-7 47 4 93 19 140 26s95 0 143-3c48-2 97-1 146 0 97 3 194 8 290-3l34-4c4-1 2-6-1-5-96 14-194 11-291 8-48-1-97-3-146-2l-72 4c-24 2-49 4-74 3-47-2-92-17-138-25-47-8-94-6-141-1-40 5-80 10-120 12H295c-74-1-147-5-221-9H52c-4-1-4 4 0 5Z"></path> </g> </svg> 