<?xml version="1.0" encoding="UTF-8"?> <svg xmlns="http://www.w3.org/2000/svg" width="565" height="402" viewBox="0 0 565 402" fill="none"> <path d="M525.38 75.19L498 299.34C497.442 303.883 495.211 308.055 491.742 311.041C488.273 314.028 483.816 315.614 479.24 315.49L91.8202 304.82C88.3193 304.726 84.9182 303.633 82.0179 301.67C79.1175 299.706 76.8388 296.955 75.4502 293.74L1.52022 122.59C0.367549 119.917 -0.13387 117.009 0.0572417 114.105C0.248353 111.2 1.12653 108.383 2.61948 105.884C4.11243 103.385 6.17746 101.277 8.64459 99.7324C11.1117 98.1879 13.9104 97.2514 16.8102 97L505.54 54.64C508.267 54.404 511.012 54.7797 513.575 55.7396C516.138 56.6995 518.455 58.2193 520.356 60.1884C522.257 62.1575 523.695 64.526 524.564 67.1213C525.433 69.7166 525.712 72.4732 525.38 75.19Z" fill="#136EF6"></path> <path d="M105.5 312C95.5 266.5 79.0001 179.5 59.0001 100.5C56.2314 89.5634 59.3052 75.3937 70.5001 73.9997C199 57.9997 374 26.4999 539.5 5.99974C549.033 4.81894 562.216 7.42082 561.5 16.9997C555 104 520 299.5 507 343.5C500.943 364 254 312.5 242 337C231.35 358.744 245.467 395.033 242 398.5C236.5 404 190 348.5 153.5 329C142.199 322.962 109.769 331.422 105.5 312Z" stroke="black" stroke-width="2"></path> <path d="M17.5 134L46 206" stroke="white" stroke-width="2" stroke-linecap="round" stroke-linejoin="round"></path> <path d="M106.359 142.822L89.0801 124.075M123.901 129.907L109.219 107.352M143.58 121.076L136.327 98.7965" stroke="white" stroke-width="2" stroke-linecap="round" stroke-linejoin="round"></path> <path d="M339.5 54.0002L371.5 49.5002M403 45.5002C403 45.5002 525 24.5 536 35.5002C547.998 47.4979 525.5 136 525.5 136M524 142.5L521 161.5" stroke="black" stroke-width="2" stroke-linecap="round" stroke-linejoin="round"></path> </svg> 